<svg width="48" height="33" viewBox="0 0 48 33" fill="none" xmlns="http://www.w3.org/2000/svg">
<rect y="0.313965" width="48" height="32" rx="16" fill="#122C58"/>
<path d="M23.25 11.064V14.564C23.25 14.8292 23.1446 15.0835 22.9571 15.2711C22.7696 15.4586 22.5152 15.564 22.25 15.564H18.75C18.4848 15.564 18.2304 15.4586 18.0429 15.2711C17.8554 15.0835 17.75 14.8292 17.75 14.564V11.064C17.75 10.7987 17.8554 10.5444 18.0429 10.3569C18.2304 10.1693 18.4848 10.064 18.75 10.064H22.25C22.5152 10.064 22.7696 10.1693 22.9571 10.3569C23.1446 10.5444 23.25 10.7987 23.25 11.064ZM29.25 10.064H25.75C25.4848 10.064 25.2304 10.1693 25.0429 10.3569C24.8554 10.5444 24.75 10.7987 24.75 11.064V14.564C24.75 14.8292 24.8554 15.0835 25.0429 15.2711C25.2304 15.4586 25.4848 15.564 25.75 15.564H29.25C29.5152 15.564 29.7696 15.4586 29.9571 15.2711C30.1446 15.0835 30.25 14.8292 30.25 14.564V11.064C30.25 10.7987 30.1446 10.5444 29.9571 10.3569C29.7696 10.1693 29.5152 10.064 29.25 10.064ZM22.25 17.064H18.75C18.4848 17.064 18.2304 17.1693 18.0429 17.3569C17.8554 17.5444 17.75 17.7987 17.75 18.064V21.564C17.75 21.8292 17.8554 22.0835 18.0429 22.2711C18.2304 22.4586 18.4848 22.564 18.75 22.564H22.25C22.5152 22.564 22.7696 22.4586 22.9571 22.2711C23.1446 22.0835 23.25 21.8292 23.25 21.564V18.064C23.25 17.7987 23.1446 17.5444 22.9571 17.3569C22.7696 17.1693 22.5152 17.064 22.25 17.064ZM27.5 17.064C26.9561 17.064 26.4244 17.2252 25.9722 17.5274C25.5199 17.8296 25.1675 18.2591 24.9593 18.7616C24.7512 19.2641 24.6967 19.817 24.8028 20.3505C24.9089 20.8839 25.1709 21.3739 25.5555 21.7585C25.9401 22.1431 26.4301 22.405 26.9635 22.5111C27.497 22.6172 28.0499 22.5628 28.5524 22.3546C29.0549 22.1465 29.4844 21.794 29.7865 21.3418C30.0887 20.8895 30.25 20.3579 30.25 19.814C30.25 19.0846 29.9603 18.3851 29.4445 17.8694C28.9288 17.3537 28.2293 17.064 27.5 17.064Z" fill="#E7F6FF"/>
</svg>
