<svg width="20" height="21" viewBox="0 0 20 21" fill="none" xmlns="http://www.w3.org/2000/svg">
<path d="M13.4769 3.08398H6.52375C3.65 3.08398 1.3125 5.42148 1.3125 8.29523V9.66273C1.3125 12.5359 3.65 14.8734 6.52313 14.8734H6.72563L6.38813 16.709C6.33563 16.9965 6.46188 17.2827 6.71063 17.4377C6.82625 17.5096 6.955 17.5452 7.08438 17.5452C7.23313 17.5452 7.38125 17.4977 7.50688 17.404L10.8931 14.874H13.4763C16.3494 14.874 18.6869 12.5365 18.6869 9.66336V8.29523C18.6875 5.42148 16.35 3.08398 13.4769 3.08398ZM17.5625 9.66211C17.5625 11.9152 15.7294 13.7484 13.4763 13.7484H10.7063C10.585 13.7484 10.4669 13.7877 10.3694 13.8602L7.6875 15.864L7.95438 14.4121C7.98438 14.2477 7.94 14.079 7.83313 13.9502C7.72625 13.8221 7.56813 13.7477 7.40125 13.7477H6.52313C4.27 13.7477 2.43688 11.9146 2.43688 9.66148V8.29523C2.43688 6.04211 4.27 4.20898 6.52313 4.20898H13.4763C15.7294 4.20898 17.5625 6.04211 17.5625 8.29523V9.66211Z" fill="#FFF7FA"/>
<path d="M6.71262 8.07324C6.21262 8.07324 5.80762 8.47824 5.80762 8.97824C5.80762 9.47824 6.21262 9.88324 6.71262 9.88324C7.21262 9.88324 7.61762 9.47824 7.61762 8.97824C7.61699 8.47824 7.21199 8.07324 6.71262 8.07324Z" fill="#FFF7FA"/>
<path d="M10.0002 8.07324C9.50021 8.07324 9.09521 8.47824 9.09521 8.97824C9.09521 9.47824 9.50021 9.88324 10.0002 9.88324C10.5002 9.88324 10.9052 9.47824 10.9052 8.97824C10.9052 8.47824 10.5002 8.07324 10.0002 8.07324Z" fill="#FFF7FA"/>
<path d="M13.2873 8.07324C12.7873 8.07324 12.3823 8.47824 12.3823 8.97824C12.3823 9.47824 12.7873 9.88324 13.2873 9.88324C13.7873 9.88324 14.1923 9.47824 14.1923 8.97824C14.1923 8.47824 13.7873 8.07324 13.2873 8.07324Z" fill="#FFF7FA"/>
</svg>
