<svg width="32" height="32" viewBox="0 0 32 32" fill="none" xmlns="http://www.w3.org/2000/svg">
<path d="M15.4732 4.57153C0.93905 5.03173 0.935593 26.1091 15.4732 26.5715C30.0071 26.1113 30.0106 5.03393 15.4732 4.57153ZM20.9732 16.3572H16.2589V21.0715C16.2589 21.2799 16.1761 21.4798 16.0288 21.6271C15.8814 21.7745 15.6816 21.8572 15.4732 21.8572C15.2648 21.8572 15.065 21.7745 14.9176 21.6271C14.7703 21.4798 14.6875 21.2799 14.6875 21.0715V16.3572H9.97319C9.76481 16.3572 9.56496 16.2745 9.41761 16.1271C9.27026 15.9798 9.18748 15.7799 9.18748 15.5715C9.18748 15.3631 9.27026 15.1633 9.41761 15.0159C9.56496 14.8686 9.76481 14.7858 9.97319 14.7858H14.6875V10.0715C14.6875 9.86315 14.7703 9.6633 14.9176 9.51595C15.065 9.3686 15.2648 9.28582 15.4732 9.28582C15.6816 9.28582 15.8814 9.3686 16.0288 9.51595C16.1761 9.6633 16.2589 9.86315 16.2589 10.0715V14.7858H20.9732C21.1816 14.7858 21.3814 14.8686 21.5288 15.0159C21.6761 15.1633 21.7589 15.3631 21.7589 15.5715C21.7589 15.7799 21.6761 15.9798 21.5288 16.1271C21.3814 16.2745 21.1816 16.3572 20.9732 16.3572Z" fill="#E7F6FF"/>
</svg>
