<svg width="174" height="74" viewBox="0 0 174 74" fill="none" xmlns="http://www.w3.org/2000/svg">
<rect x="16" y="16" width="142" height="42" rx="21" fill="#FF3181"/>
<g filter="url(#filter0_d_171_3203)">
<rect x="16" y="16" width="142" height="42" rx="21" fill="#AC2459" fill-opacity="0.25" shape-rendering="crispEdges"/>
<rect x="16.75" y="16.75" width="140.5" height="40.5" rx="20.25" stroke="#FF3181" stroke-width="1.5" shape-rendering="crispEdges"/>
<path d="M52.76 42.5C52.6427 42.5 52.552 42.468 52.488 42.404C52.424 42.3293 52.392 42.2387 52.392 42.132V31.684C52.392 31.5667 52.424 31.476 52.488 31.412C52.552 31.3373 52.6427 31.3 52.76 31.3H59.288C59.4053 31.3 59.496 31.3373 59.56 31.412C59.624 31.476 59.656 31.5667 59.656 31.684V32.324C59.656 32.4413 59.624 32.532 59.56 32.596C59.496 32.66 59.4053 32.692 59.288 32.692H53.944V36.42H58.968C59.0853 36.42 59.176 36.4573 59.24 36.532C59.304 36.596 59.336 36.6867 59.336 36.804V37.444C59.336 37.5507 59.304 37.6413 59.24 37.716C59.176 37.78 59.0853 37.812 58.968 37.812H53.944V42.132C53.944 42.2387 53.9067 42.3293 53.832 42.404C53.768 42.468 53.6773 42.5 53.56 42.5H52.76ZM64.7639 42.66C63.9532 42.66 63.2759 42.5053 62.7319 42.196C62.1879 41.8867 61.7719 41.46 61.4839 40.916C61.1959 40.3613 61.0359 39.732 61.0039 39.028C60.9932 38.8467 60.9879 38.6173 60.9879 38.34C60.9879 38.052 60.9932 37.8227 61.0039 37.652C61.0359 36.9373 61.1959 36.308 61.4839 35.764C61.7825 35.22 62.2039 34.7933 62.7479 34.484C63.2919 34.1747 63.9639 34.02 64.7639 34.02C65.5639 34.02 66.2359 34.1747 66.7799 34.484C67.3239 34.7933 67.7399 35.22 68.0279 35.764C68.3265 36.308 68.4919 36.9373 68.5239 37.652C68.5345 37.8227 68.5399 38.052 68.5399 38.34C68.5399 38.6173 68.5345 38.8467 68.5239 39.028C68.4919 39.732 68.3319 40.3613 68.0439 40.916C67.7559 41.46 67.3399 41.8867 66.7959 42.196C66.2519 42.5053 65.5745 42.66 64.7639 42.66ZM64.7639 41.428C65.4252 41.428 65.9532 41.22 66.3479 40.804C66.7425 40.3773 66.9559 39.7587 66.9879 38.948C66.9985 38.788 67.0039 38.5853 67.0039 38.34C67.0039 38.0947 66.9985 37.892 66.9879 37.732C66.9559 36.9213 66.7425 36.308 66.3479 35.892C65.9532 35.4653 65.4252 35.252 64.7639 35.252C64.1025 35.252 63.5692 35.4653 63.1639 35.892C62.7692 36.308 62.5612 36.9213 62.5399 37.732C62.5292 37.892 62.5239 38.0947 62.5239 38.34C62.5239 38.5853 62.5292 38.788 62.5399 38.948C62.5612 39.7587 62.7692 40.3773 63.1639 40.804C63.5692 41.22 64.1025 41.428 64.7639 41.428ZM70.9274 42.5C70.8207 42.5 70.73 42.468 70.6554 42.404C70.5914 42.3293 70.5594 42.2387 70.5594 42.132V31.508C70.5594 31.4013 70.5914 31.316 70.6554 31.252C70.73 31.1773 70.8207 31.14 70.9274 31.14H71.6794C71.7967 31.14 71.8874 31.1773 71.9514 31.252C72.0154 31.316 72.0474 31.4013 72.0474 31.508V42.132C72.0474 42.2387 72.0154 42.3293 71.9514 42.404C71.8874 42.468 71.7967 42.5 71.6794 42.5H70.9274ZM74.818 42.5C74.7113 42.5 74.6207 42.468 74.546 42.404C74.482 42.3293 74.45 42.2387 74.45 42.132V31.508C74.45 31.4013 74.482 31.316 74.546 31.252C74.6207 31.1773 74.7113 31.14 74.818 31.14H75.57C75.6873 31.14 75.778 31.1773 75.842 31.252C75.906 31.316 75.938 31.4013 75.938 31.508V42.132C75.938 42.2387 75.906 42.3293 75.842 42.404C75.778 42.468 75.6873 42.5 75.57 42.5H74.818ZM81.7326 42.66C80.922 42.66 80.2446 42.5053 79.7006 42.196C79.1566 41.8867 78.7406 41.46 78.4526 40.916C78.1646 40.3613 78.0046 39.732 77.9726 39.028C77.962 38.8467 77.9566 38.6173 77.9566 38.34C77.9566 38.052 77.962 37.8227 77.9726 37.652C78.0046 36.9373 78.1646 36.308 78.4526 35.764C78.7513 35.22 79.1726 34.7933 79.7166 34.484C80.2606 34.1747 80.9326 34.02 81.7326 34.02C82.5326 34.02 83.2046 34.1747 83.7486 34.484C84.2926 34.7933 84.7086 35.22 84.9966 35.764C85.2953 36.308 85.4606 36.9373 85.4926 37.652C85.5033 37.8227 85.5086 38.052 85.5086 38.34C85.5086 38.6173 85.5033 38.8467 85.4926 39.028C85.4606 39.732 85.3006 40.3613 85.0126 40.916C84.7246 41.46 84.3086 41.8867 83.7646 42.196C83.2206 42.5053 82.5433 42.66 81.7326 42.66ZM81.7326 41.428C82.394 41.428 82.922 41.22 83.3166 40.804C83.7113 40.3773 83.9246 39.7587 83.9566 38.948C83.9673 38.788 83.9726 38.5853 83.9726 38.34C83.9726 38.0947 83.9673 37.892 83.9566 37.732C83.9246 36.9213 83.7113 36.308 83.3166 35.892C82.922 35.4653 82.394 35.252 81.7326 35.252C81.0713 35.252 80.538 35.4653 80.1326 35.892C79.738 36.308 79.53 36.9213 79.5086 37.732C79.498 37.892 79.4926 38.0947 79.4926 38.34C79.4926 38.5853 79.498 38.788 79.5086 38.948C79.53 39.7587 79.738 40.3773 80.1326 40.804C80.538 41.22 81.0713 41.428 81.7326 41.428ZM89.5014 42.5C89.3627 42.5 89.256 42.468 89.1814 42.404C89.1067 42.3293 89.0427 42.228 88.9894 42.1L86.7174 34.676C86.696 34.6227 86.6854 34.5693 86.6854 34.516C86.6854 34.42 86.7174 34.34 86.7814 34.276C86.856 34.212 86.936 34.18 87.0214 34.18H87.7254C87.8427 34.18 87.9334 34.212 87.9974 34.276C88.0614 34.34 88.104 34.3987 88.1254 34.452L89.9014 40.484L91.8054 34.516C91.8267 34.4413 91.8694 34.3667 91.9334 34.292C92.008 34.2173 92.1147 34.18 92.2534 34.18H92.7974C92.936 34.18 93.0427 34.2173 93.1174 34.292C93.192 34.3667 93.2347 34.4413 93.2454 34.516L95.1494 40.484L96.9254 34.452C96.936 34.3987 96.9734 34.34 97.0374 34.276C97.1014 34.212 97.192 34.18 97.3094 34.18H98.0134C98.1094 34.18 98.1894 34.212 98.2534 34.276C98.3174 34.34 98.3494 34.42 98.3494 34.516C98.3494 34.5693 98.3387 34.6227 98.3174 34.676L96.0454 42.1C96.0134 42.228 95.9547 42.3293 95.8694 42.404C95.7947 42.468 95.6827 42.5 95.5334 42.5H94.9094C94.7707 42.5 94.6534 42.468 94.5574 42.404C94.472 42.3293 94.4134 42.228 94.3814 42.1L92.5254 36.372L90.6694 42.1C90.6267 42.228 90.5627 42.3293 90.4774 42.404C90.392 42.468 90.2747 42.5 90.1254 42.5H89.5014ZM100.49 42.5C100.383 42.5 100.292 42.468 100.218 42.404C100.154 42.3293 100.122 42.2387 100.122 42.132V34.548C100.122 34.4413 100.154 34.356 100.218 34.292C100.292 34.2173 100.383 34.18 100.49 34.18H101.258C101.364 34.18 101.45 34.2173 101.514 34.292C101.578 34.356 101.61 34.4413 101.61 34.548V42.132C101.61 42.2387 101.578 42.3293 101.514 42.404C101.45 42.468 101.364 42.5 101.258 42.5H100.49ZM100.362 32.628C100.255 32.628 100.164 32.596 100.09 32.532C100.026 32.4573 99.9935 32.3667 99.9935 32.26V31.396C99.9935 31.2893 100.026 31.204 100.09 31.14C100.164 31.0653 100.255 31.028 100.362 31.028H101.37C101.476 31.028 101.562 31.0653 101.626 31.14C101.7 31.204 101.738 31.2893 101.738 31.396V32.26C101.738 32.3667 101.7 32.4573 101.626 32.532C101.562 32.596 101.476 32.628 101.37 32.628H100.362ZM104.521 42.5C104.414 42.5 104.323 42.468 104.249 42.404C104.185 42.3293 104.153 42.2387 104.153 42.132V34.548C104.153 34.4413 104.185 34.356 104.249 34.292C104.323 34.2173 104.414 34.18 104.521 34.18H105.273C105.379 34.18 105.465 34.2173 105.529 34.292C105.603 34.356 105.641 34.4413 105.641 34.548V35.252C105.918 34.8893 106.265 34.596 106.681 34.372C107.107 34.1373 107.651 34.02 108.313 34.02C109.006 34.02 109.593 34.1747 110.073 34.484C110.563 34.7827 110.931 35.204 111.177 35.748C111.422 36.2813 111.545 36.9053 111.545 37.62V42.132C111.545 42.2387 111.513 42.3293 111.449 42.404C111.385 42.468 111.299 42.5 111.193 42.5H110.393C110.286 42.5 110.195 42.468 110.121 42.404C110.057 42.3293 110.025 42.2387 110.025 42.132V37.7C110.025 36.9533 109.843 36.372 109.481 35.956C109.118 35.5293 108.585 35.316 107.881 35.316C107.219 35.316 106.686 35.5293 106.281 35.956C105.886 36.372 105.689 36.9533 105.689 37.7V42.132C105.689 42.2387 105.651 42.3293 105.577 42.404C105.513 42.468 105.427 42.5 105.321 42.5H104.521ZM117.264 46.02C116.539 46.02 115.941 45.924 115.472 45.732C115.013 45.54 114.651 45.3053 114.384 45.028C114.128 44.7613 113.941 44.4893 113.824 44.212C113.717 43.9453 113.659 43.732 113.648 43.572C113.637 43.4653 113.669 43.3747 113.744 43.3C113.829 43.2253 113.92 43.188 114.016 43.188H114.784C114.88 43.188 114.96 43.2093 115.024 43.252C115.088 43.2947 115.141 43.3853 115.184 43.524C115.248 43.684 115.344 43.86 115.472 44.052C115.6 44.2547 115.797 44.4253 116.064 44.564C116.331 44.7133 116.704 44.788 117.184 44.788C117.685 44.788 118.107 44.7187 118.448 44.58C118.789 44.452 119.045 44.2173 119.216 43.876C119.397 43.5453 119.488 43.0867 119.488 42.5V41.412C119.232 41.7427 118.896 42.02 118.48 42.244C118.064 42.4573 117.541 42.564 116.912 42.564C116.315 42.564 115.803 42.4627 115.376 42.26C114.949 42.0467 114.597 41.764 114.32 41.412C114.053 41.0493 113.851 40.6387 113.712 40.18C113.584 39.7213 113.509 39.2413 113.488 38.74C113.477 38.4413 113.477 38.148 113.488 37.86C113.509 37.3587 113.584 36.8787 113.712 36.42C113.851 35.9613 114.053 35.5507 114.32 35.188C114.597 34.8253 114.949 34.5427 115.376 34.34C115.803 34.1267 116.315 34.02 116.912 34.02C117.552 34.02 118.08 34.1427 118.496 34.388C118.923 34.6227 119.269 34.9107 119.536 35.252V34.564C119.536 34.4573 119.568 34.3667 119.632 34.292C119.707 34.2173 119.797 34.18 119.904 34.18H120.64C120.747 34.18 120.837 34.2173 120.912 34.292C120.987 34.3667 121.024 34.4573 121.024 34.564V42.324C121.024 43.0387 120.901 43.6733 120.656 44.228C120.421 44.7827 120.027 45.22 119.472 45.54C118.928 45.86 118.192 46.02 117.264 46.02ZM117.232 41.284C117.765 41.284 118.192 41.1613 118.512 40.916C118.843 40.6707 119.083 40.3613 119.232 39.988C119.392 39.6147 119.477 39.236 119.488 38.852C119.499 38.7027 119.504 38.5213 119.504 38.308C119.504 38.084 119.499 37.8973 119.488 37.748C119.477 37.364 119.392 36.9853 119.232 36.612C119.083 36.2387 118.843 35.9293 118.512 35.684C118.192 35.4387 117.765 35.316 117.232 35.316C116.699 35.316 116.272 35.4387 115.952 35.684C115.632 35.9187 115.403 36.2333 115.264 36.628C115.125 37.012 115.045 37.428 115.024 37.876C115.013 38.1533 115.013 38.436 115.024 38.724C115.045 39.172 115.125 39.5933 115.264 39.988C115.403 40.372 115.632 40.6867 115.952 40.932C116.272 41.1667 116.699 41.284 117.232 41.284Z" fill="#FFF7FA"/>
</g>
<defs>
<filter id="filter0_d_171_3203" x="0" y="0" width="174" height="74" filterUnits="userSpaceOnUse" color-interpolation-filters="sRGB">
<feFlood flood-opacity="0" result="BackgroundImageFix"/>
<feColorMatrix in="SourceAlpha" type="matrix" values="0 0 0 0 0 0 0 0 0 0 0 0 0 0 0 0 0 0 127 0" result="hardAlpha"/>
<feOffset/>
<feGaussianBlur stdDeviation="8"/>
<feComposite in2="hardAlpha" operator="out"/>
<feColorMatrix type="matrix" values="0 0 0 0 1 0 0 0 0 0.192157 0 0 0 0 0.505882 0 0 0 1 0"/>
<feBlend mode="normal" in2="BackgroundImageFix" result="effect1_dropShadow_171_3203"/>
<feBlend mode="normal" in="SourceGraphic" in2="effect1_dropShadow_171_3203" result="shape"/>
</filter>
</defs>
</svg>
