<svg width="142" height="42" viewBox="0 0 142 42" fill="none" xmlns="http://www.w3.org/2000/svg">
<g filter="url(#filter0_i_171_3193)">
<rect width="142" height="42" rx="21" fill="#AC2459" fill-opacity="0.25"/>
<rect x="0.75" y="0.75" width="140.5" height="40.5" rx="20.25" stroke="#FF3181" stroke-width="1.5"/>
<g clip-path="url(#clip0_171_3193)">
<path d="M38.4086 19.0172C36.8089 17.4 36.823 14.7914 38.4402 13.1918C39.2172 12.4254 40.2613 12 41.3476 12H41.3687C43.6257 11.9965 45.4609 13.8246 45.4644 16.0852V16.1203C45.482 18.3773 43.6679 20.2266 41.4074 20.2441C41.3968 20.2441 41.3828 20.2441 41.3722 20.2441H41.3476C40.2437 20.2441 39.1855 19.8047 38.4086 19.0172Z" fill="#FFF7FA"/>
<path d="M48.1012 28.9348C47.5914 29.5676 46.8144 29.9367 45.9109 29.9719C45.3801 29.993 44.8105 30.0035 44.1215 30.0035C43.6504 30.0035 43.1687 30 42.7082 29.9965C42.3566 29.993 41.998 29.9895 41.6394 29.9895V29.9965H41.3019C40.8695 29.9965 40.4371 29.9965 40.0047 30C39.5723 30.0035 39.1398 30.0035 38.7074 30.0035C38.0992 30.0035 37.593 30 37.1219 29.9965C35.9969 29.9824 35.1109 29.6063 34.566 28.9066C34.0211 28.207 33.8664 27.2543 34.1265 26.1574C34.4887 24.6281 35.4168 23.2289 36.7422 22.2199C38.0605 21.2145 39.6848 20.6625 41.3125 20.6625C41.3828 20.6625 41.4531 20.6625 41.5199 20.666C45.0707 20.768 48.073 23.243 48.6601 26.5547C48.8148 27.4441 48.618 28.2914 48.1012 28.9348Z" fill="#FFF7FA"/>
<path d="M48.857 21.6504C48.2418 21.6504 47.7391 21.1512 47.7391 20.5324V19.6289H46.832C46.2168 19.6184 45.7246 19.1086 45.7352 18.4934C45.7457 17.8922 46.2309 17.407 46.832 17.3965H47.7391V16.4895C47.7496 15.8742 48.2594 15.382 48.8746 15.3926C49.4758 15.4031 49.9609 15.8883 49.9715 16.4895V17.3965H50.8785C51.4937 17.386 52.0035 17.8781 52.0141 18.4934C52.0246 19.1086 51.5324 19.6184 50.9172 19.6289C50.9031 19.6289 50.8891 19.6289 50.8785 19.6289H49.9715V20.536C49.975 21.1512 49.4758 21.6504 48.857 21.6504Z" fill="#FFF7FA"/>
</g>
<path d="M61.76 26.5C61.6427 26.5 61.552 26.468 61.488 26.404C61.424 26.3293 61.392 26.2387 61.392 26.132V15.684C61.392 15.5667 61.424 15.476 61.488 15.412C61.552 15.3373 61.6427 15.3 61.76 15.3H68.288C68.4053 15.3 68.496 15.3373 68.56 15.412C68.624 15.476 68.656 15.5667 68.656 15.684V16.324C68.656 16.4413 68.624 16.532 68.56 16.596C68.496 16.66 68.4053 16.692 68.288 16.692H62.944V20.42H67.968C68.0853 20.42 68.176 20.4573 68.24 20.532C68.304 20.596 68.336 20.6867 68.336 20.804V21.444C68.336 21.5507 68.304 21.6413 68.24 21.716C68.176 21.78 68.0853 21.812 67.968 21.812H62.944V26.132C62.944 26.2387 62.9067 26.3293 62.832 26.404C62.768 26.468 62.6773 26.5 62.56 26.5H61.76ZM73.7639 26.66C72.9532 26.66 72.2759 26.5053 71.7319 26.196C71.1879 25.8867 70.7719 25.46 70.4839 24.916C70.1959 24.3613 70.0359 23.732 70.0039 23.028C69.9932 22.8467 69.9879 22.6173 69.9879 22.34C69.9879 22.052 69.9932 21.8227 70.0039 21.652C70.0359 20.9373 70.1959 20.308 70.4839 19.764C70.7825 19.22 71.2039 18.7933 71.7479 18.484C72.2919 18.1747 72.9639 18.02 73.7639 18.02C74.5639 18.02 75.2359 18.1747 75.7799 18.484C76.3239 18.7933 76.7399 19.22 77.0279 19.764C77.3265 20.308 77.4919 20.9373 77.5239 21.652C77.5345 21.8227 77.5399 22.052 77.5399 22.34C77.5399 22.6173 77.5345 22.8467 77.5239 23.028C77.4919 23.732 77.3319 24.3613 77.0439 24.916C76.7559 25.46 76.3399 25.8867 75.7959 26.196C75.2519 26.5053 74.5745 26.66 73.7639 26.66ZM73.7639 25.428C74.4252 25.428 74.9532 25.22 75.3479 24.804C75.7425 24.3773 75.9559 23.7587 75.9879 22.948C75.9985 22.788 76.0039 22.5853 76.0039 22.34C76.0039 22.0947 75.9985 21.892 75.9879 21.732C75.9559 20.9213 75.7425 20.308 75.3479 19.892C74.9532 19.4653 74.4252 19.252 73.7639 19.252C73.1025 19.252 72.5692 19.4653 72.1639 19.892C71.7692 20.308 71.5612 20.9213 71.5399 21.732C71.5292 21.892 71.5239 22.0947 71.5239 22.34C71.5239 22.5853 71.5292 22.788 71.5399 22.948C71.5612 23.7587 71.7692 24.3773 72.1639 24.804C72.5692 25.22 73.1025 25.428 73.7639 25.428ZM79.9274 26.5C79.8207 26.5 79.73 26.468 79.6554 26.404C79.5914 26.3293 79.5594 26.2387 79.5594 26.132V15.508C79.5594 15.4013 79.5914 15.316 79.6554 15.252C79.73 15.1773 79.8207 15.14 79.9274 15.14H80.6794C80.7967 15.14 80.8874 15.1773 80.9514 15.252C81.0154 15.316 81.0474 15.4013 81.0474 15.508V26.132C81.0474 26.2387 81.0154 26.3293 80.9514 26.404C80.8874 26.468 80.7967 26.5 80.6794 26.5H79.9274ZM83.818 26.5C83.7113 26.5 83.6207 26.468 83.546 26.404C83.482 26.3293 83.45 26.2387 83.45 26.132V15.508C83.45 15.4013 83.482 15.316 83.546 15.252C83.6207 15.1773 83.7113 15.14 83.818 15.14H84.57C84.6873 15.14 84.778 15.1773 84.842 15.252C84.906 15.316 84.938 15.4013 84.938 15.508V26.132C84.938 26.2387 84.906 26.3293 84.842 26.404C84.778 26.468 84.6873 26.5 84.57 26.5H83.818ZM90.7326 26.66C89.922 26.66 89.2446 26.5053 88.7006 26.196C88.1566 25.8867 87.7406 25.46 87.4526 24.916C87.1646 24.3613 87.0046 23.732 86.9726 23.028C86.962 22.8467 86.9566 22.6173 86.9566 22.34C86.9566 22.052 86.962 21.8227 86.9726 21.652C87.0046 20.9373 87.1646 20.308 87.4526 19.764C87.7513 19.22 88.1726 18.7933 88.7166 18.484C89.2606 18.1747 89.9326 18.02 90.7326 18.02C91.5326 18.02 92.2046 18.1747 92.7486 18.484C93.2926 18.7933 93.7086 19.22 93.9966 19.764C94.2953 20.308 94.4606 20.9373 94.4926 21.652C94.5033 21.8227 94.5086 22.052 94.5086 22.34C94.5086 22.6173 94.5033 22.8467 94.4926 23.028C94.4606 23.732 94.3006 24.3613 94.0126 24.916C93.7246 25.46 93.3086 25.8867 92.7646 26.196C92.2206 26.5053 91.5433 26.66 90.7326 26.66ZM90.7326 25.428C91.394 25.428 91.922 25.22 92.3166 24.804C92.7113 24.3773 92.9246 23.7587 92.9566 22.948C92.9673 22.788 92.9726 22.5853 92.9726 22.34C92.9726 22.0947 92.9673 21.892 92.9566 21.732C92.9246 20.9213 92.7113 20.308 92.3166 19.892C91.922 19.4653 91.394 19.252 90.7326 19.252C90.0713 19.252 89.538 19.4653 89.1326 19.892C88.738 20.308 88.53 20.9213 88.5086 21.732C88.498 21.892 88.4926 22.0947 88.4926 22.34C88.4926 22.5853 88.498 22.788 88.5086 22.948C88.53 23.7587 88.738 24.3773 89.1326 24.804C89.538 25.22 90.0713 25.428 90.7326 25.428ZM98.5014 26.5C98.3627 26.5 98.256 26.468 98.1814 26.404C98.1067 26.3293 98.0427 26.228 97.9894 26.1L95.7174 18.676C95.696 18.6227 95.6854 18.5693 95.6854 18.516C95.6854 18.42 95.7174 18.34 95.7814 18.276C95.856 18.212 95.936 18.18 96.0214 18.18H96.7254C96.8427 18.18 96.9334 18.212 96.9974 18.276C97.0614 18.34 97.104 18.3987 97.1254 18.452L98.9014 24.484L100.805 18.516C100.827 18.4413 100.869 18.3667 100.933 18.292C101.008 18.2173 101.115 18.18 101.253 18.18H101.797C101.936 18.18 102.043 18.2173 102.117 18.292C102.192 18.3667 102.235 18.4413 102.245 18.516L104.149 24.484L105.925 18.452C105.936 18.3987 105.973 18.34 106.037 18.276C106.101 18.212 106.192 18.18 106.309 18.18H107.013C107.109 18.18 107.189 18.212 107.253 18.276C107.317 18.34 107.349 18.42 107.349 18.516C107.349 18.5693 107.339 18.6227 107.317 18.676L105.045 26.1C105.013 26.228 104.955 26.3293 104.869 26.404C104.795 26.468 104.683 26.5 104.533 26.5H103.909C103.771 26.5 103.653 26.468 103.557 26.404C103.472 26.3293 103.413 26.228 103.381 26.1L101.525 20.372L99.6694 26.1C99.6267 26.228 99.5627 26.3293 99.4774 26.404C99.392 26.468 99.2747 26.5 99.1254 26.5H98.5014Z" fill="#FFF7FA"/>
</g>
<defs>
<filter id="filter0_i_171_3193" x="0" y="0" width="142" height="44" filterUnits="userSpaceOnUse" color-interpolation-filters="sRGB">
<feFlood flood-opacity="0" result="BackgroundImageFix"/>
<feBlend mode="normal" in="SourceGraphic" in2="BackgroundImageFix" result="shape"/>
<feColorMatrix in="SourceAlpha" type="matrix" values="0 0 0 0 0 0 0 0 0 0 0 0 0 0 0 0 0 0 127 0" result="hardAlpha"/>
<feOffset dy="2"/>
<feGaussianBlur stdDeviation="8"/>
<feComposite in2="hardAlpha" operator="arithmetic" k2="-1" k3="1"/>
<feColorMatrix type="matrix" values="0 0 0 0 1 0 0 0 0 0.192157 0 0 0 0 0.505882 0 0 0 1 0"/>
<feBlend mode="normal" in2="shape" result="effect1_innerShadow_171_3193"/>
</filter>
<clipPath id="clip0_171_3193">
<rect width="18" height="18" fill="white" transform="translate(34 12)"/>
</clipPath>
</defs>
</svg>
