<svg width="109" height="106" viewBox="0 0 109 106" fill="none" xmlns="http://www.w3.org/2000/svg">
<g filter="url(#filter0_d_2456_428)">
<path d="M66.0785 51.066C65.9463 51.2567 65.7438 51.3871 65.5155 51.4286C65.2872 51.4701 65.0517 51.4193 64.8609 51.2874L54.4835 44.1028C54.3369 44.0018 54.163 43.9478 53.985 43.9479C53.807 43.948 53.6332 44.0021 53.4867 44.1032L43.1397 51.2865C42.9491 51.4183 42.7139 51.4691 42.4859 51.4278C42.2579 51.3864 42.0556 51.2563 41.9234 51.066C41.7912 50.8756 41.7399 50.6406 41.7808 50.4125C41.8218 50.1843 41.9515 49.9818 42.1416 49.8492L52.4887 42.666C52.9284 42.3628 53.4498 42.2003 53.9839 42.2C54.518 42.1996 55.0396 42.3613 55.4798 42.6638L65.8572 49.8484C66.048 49.9805 66.1785 50.183 66.22 50.4114C66.2615 50.6397 66.2106 50.8752 66.0785 51.066ZM62.4597 50.9908L54.4865 45.6554C54.3425 45.5589 54.1731 45.5074 53.9998 45.5074C53.8265 45.5074 53.6571 45.5589 53.5132 45.6554L45.5399 50.9908C45.1811 51.2304 44.8871 51.5549 44.6838 51.9355C44.4806 52.3161 44.3744 52.7409 44.3748 53.1724V60.8201C44.3756 61.516 44.6524 62.1833 45.1445 62.6754C45.6366 63.1675 46.3039 63.4443 46.9998 63.4451H50.4998V58.1951C50.4998 57.4989 50.7764 56.8312 51.2687 56.3389C51.761 55.8466 52.4286 55.5701 53.1248 55.5701H54.8748C55.571 55.5701 56.2387 55.8466 56.731 56.3389C57.2233 56.8312 57.4998 57.4989 57.4998 58.1951V63.4451H60.9998C61.6958 63.4443 62.363 63.1675 62.8552 62.6754C63.3473 62.1833 63.6241 61.516 63.6248 60.8201V53.1724C63.6252 52.7409 63.5191 52.3161 63.3159 51.9355C63.1126 51.5549 62.8185 51.2304 62.4597 50.9908ZM63.6248 44.1951C63.6248 43.7309 63.4405 43.2858 63.1123 42.9576C62.7841 42.6294 62.339 42.4451 61.8748 42.4451H60.9998C60.6948 42.4457 60.3953 42.5265 60.1313 42.6792C59.8672 42.8319 59.6479 43.0512 59.4952 43.3152L63.6248 46.1742V44.1951Z" fill="#FF3181"/>
</g>
<defs>
<filter id="filter0_d_2456_428" x="-0.432911" y="-4.95911e-05" width="108.867" height="105.645" filterUnits="userSpaceOnUse" color-interpolation-filters="sRGB">
<feFlood flood-opacity="0" result="BackgroundImageFix"/>
<feColorMatrix in="SourceAlpha" type="matrix" values="0 0 0 0 0 0 0 0 0 0 0 0 0 0 0 0 0 0 127 0" result="hardAlpha"/>
<feOffset/>
<feGaussianBlur stdDeviation="21.1"/>
<feComposite in2="hardAlpha" operator="out"/>
<feColorMatrix type="matrix" values="0 0 0 0 1 0 0 0 0 1 0 0 0 0 1 0 0 0 1 0"/>
<feBlend mode="normal" in2="BackgroundImageFix" result="effect1_dropShadow_2456_428"/>
<feBlend mode="normal" in="SourceGraphic" in2="effect1_dropShadow_2456_428" result="shape"/>
</filter>
</defs>
</svg>
