<svg width="20" height="21" viewBox="0 0 20 21" fill="none" xmlns="http://www.w3.org/2000/svg">
<path d="M3.76188 10.838C4.18265 10.838 4.52375 10.4969 4.52375 10.0761C4.52375 9.65531 4.18265 9.31421 3.76188 9.31421C3.3411 9.31421 3 9.65531 3 10.0761C3 10.4969 3.3411 10.838 3.76188 10.838Z" fill="#FFF7FA"/>
<path d="M18.7992 8.52278C18.3342 7.93028 17.6354 7.59028 16.8817 7.59028H13.8879V3.76528C13.8879 2.69341 13.0154 1.82153 11.9429 1.82153C11.2748 1.82153 10.6611 2.15841 10.3029 2.72216L7.04732 7.84028C6.75545 7.22903 6.13607 6.80216 5.41545 6.80216H2.4917C1.49232 6.80216 0.679199 7.61528 0.679199 8.61466V16.9934C0.679199 17.9928 1.49295 18.8059 2.4917 18.8059H5.41482C6.23982 18.8059 6.93045 18.2478 7.1492 17.4915C7.5442 17.7678 8.02232 17.9322 8.53982 17.9322H15.5411C16.6667 17.9322 17.6404 17.1678 17.9086 16.074L19.2492 10.6065C19.4286 9.87591 19.2642 9.11591 18.7992 8.52278ZM6.10232 16.994C6.10232 17.3728 5.7942 17.6815 5.41482 17.6815H2.4917C2.11295 17.6815 1.8042 17.3734 1.8042 16.994V8.61528C1.8042 8.23653 2.11232 7.92778 2.4917 7.92778H5.41482C5.79357 7.92778 6.10232 8.23653 6.10232 8.61528V16.994ZM18.1567 10.3403L16.8161 15.8072C16.6717 16.3959 16.1473 16.8078 15.5411 16.8078H8.53982C7.81607 16.8078 7.22732 16.2197 7.22732 15.4953V10.0347C7.22732 9.78466 7.29795 9.54091 7.43232 9.33028L11.2517 3.32653C11.4023 3.08903 11.6611 2.94716 11.9429 2.94716C12.3948 2.94716 12.7617 3.31466 12.7617 3.76591V8.15341C12.7617 8.46403 13.0136 8.71591 13.3242 8.71591H16.8804C17.2861 8.71591 17.6623 8.89903 17.9129 9.21841C18.1642 9.53653 18.2529 9.94653 18.1567 10.3403Z" fill="#FFF7FA"/>
</svg>
