<svg width="20" height="20" viewBox="0 0 20 20" fill="none" xmlns="http://www.w3.org/2000/svg">
<g clip-path="url(#clip0_144_5358)">
<path d="M1 8.15V17.35C1 17.9851 1.55962 18.5 2.25 18.5H5C5.55228 18.5 6 18.0523 6 17.5V12.75V9.875V8C6 7.44772 5.55227 7 4.99998 7C4.08361 7 3.34747 7 2.25 7C1.55962 7 1 7.51485 1 8.15Z" fill="#FFF7FA"/>
<path d="M17.6917 7.49973H14.2375C14.0803 7.49973 13.9793 7.49314 13.838 7.42432C13.6105 7.31357 13.4584 7.05849 13.4551 6.8055L13.4522 6.57139L13.5 4.49982C13.5 3.99982 13.5 3.03208 13.5 3.03208V2.05658C13.5 1.72789 13.28 1.43988 12.9628 1.35349C12.7593 1.29806 12.5417 1.30213 12.34 1.3637C12.1425 1.42399 11.9625 1.53774 11.8244 1.69123L7.05139 6.99375C6.53442 7.56931 6.25 8.3115 6.25 9.0842V15.6247C6.25 17.3477 7.65198 17.5007 9.375 17.5007L15.5927 17.5001C16.9965 17.5001 18.2361 17.8037 18.6066 16.4505L19.9408 10.3275C19.9798 10.1572 20 9.98263 20 9.80807C20 8.53548 18.9642 7.49973 17.6917 7.49973Z" fill="#FFF7FA"/>
<path d="M3.46207 10.5238C3.88284 10.5238 4.22395 10.1826 4.22395 9.76187C4.22395 9.3411 3.88284 9 3.46207 9C3.0413 9 2.7002 9.3411 2.7002 9.76187C2.7002 10.1826 3.0413 10.5238 3.46207 10.5238Z" fill="#122C58"/>
</g>
<defs>
<clipPath id="clip0_144_5358">
<rect width="20" height="20" fill="white"/>
</clipPath>
</defs>
</svg>
