<svg width="164" height="43" viewBox="0 0 164 43" fill="none" xmlns="http://www.w3.org/2000/svg">
<rect y="0.313965" width="163.5" height="42" rx="21" fill="white" fill-opacity="0.25"/>
<g clip-path="url(#clip0_2420_637)">
<mask id="mask0_2420_637" style="mask-type:luminance" maskUnits="userSpaceOnUse" x="35" y="12" width="19" height="19">
<path d="M35.75 12.314H53.75V30.314H35.75V12.314Z" fill="white"/>
</mask>
<g mask="url(#mask0_2420_637)">
<path fill-rule="evenodd" clip-rule="evenodd" d="M44.7472 12.3738C46.0927 12.373 47.4209 12.6759 48.633 13.2599C49.8451 13.844 50.9098 14.6941 51.7477 15.7468C52.5855 16.7996 53.175 18.0279 53.472 19.3402C53.7691 20.6525 53.766 22.015 53.4634 23.3259C53.1606 24.6369 52.5658 25.8627 51.7233 26.9118C50.8809 27.9609 49.8125 28.8063 48.5978 29.3851C47.3832 29.9638 46.0535 30.261 44.7081 30.2543C43.434 30.248 42.1769 29.9695 41.0206 29.4384L36.5644 30.2441C36.3367 30.2853 36.1045 30.2009 35.9563 30.0232C35.8081 29.8455 35.7668 29.6019 35.8482 29.3854L37.1265 25.9844C36.3418 24.7034 35.8915 23.2437 35.8199 21.7396C35.7429 20.1242 36.1055 18.5183 36.8691 17.0927C37.6327 15.6672 38.7686 14.4754 40.156 13.6444C41.5432 12.8135 43.1301 12.3743 44.7472 12.3738ZM40.6051 21.3121L40.6057 21.3141L40.6051 21.3161L40.6044 21.3173L40.6032 21.318L40.6012 21.3186L40.5992 21.318L40.5979 21.3173L40.5972 21.3161L40.5966 21.3141L40.5972 21.3121L40.5979 21.3108L40.5992 21.3101L40.6012 21.3095L40.6032 21.3101L40.6044 21.3108L40.6051 21.3121ZM40.6012 20.0329C39.8936 20.0329 39.3201 20.6065 39.3201 21.3141C39.3201 22.0216 39.8936 22.5952 40.6012 22.5952C41.3087 22.5952 41.8823 22.0216 41.8823 21.3141C41.8823 20.6065 41.3087 20.0329 40.6012 20.0329ZM44.7544 21.3141L44.7539 21.3121L44.7531 21.3108L44.7519 21.3101L44.7499 21.3095L44.7479 21.3101L44.7466 21.3108L44.7459 21.3121L44.7453 21.3141L44.7459 21.3161L44.7466 21.3173L44.7479 21.318L44.7499 21.3186L44.7519 21.318L44.7531 21.3173L44.7539 21.3161L44.7544 21.3141ZM43.4688 21.3141C43.4688 20.6065 44.0423 20.0329 44.7499 20.0329C45.4574 20.0329 46.031 20.6065 46.031 21.3141C46.031 22.0216 45.4574 22.5952 44.7499 22.5952C44.0423 22.5952 43.4688 22.0216 43.4688 21.3141ZM48.9026 21.3121L48.9032 21.3141L48.9026 21.3161L48.9018 21.3173L48.9006 21.318L48.8986 21.3186L48.8967 21.318L48.8954 21.3173L48.8946 21.3161L48.8941 21.3141L48.8946 21.3121L48.8954 21.3108L48.8967 21.3101L48.8986 21.3095L48.9006 21.3101L48.9018 21.3108L48.9026 21.3121ZM48.8986 20.0329C48.1911 20.0329 47.6175 20.6065 47.6175 21.3141C47.6175 22.0216 48.1911 22.5952 48.8986 22.5952C49.6061 22.5952 50.1797 22.0216 50.1797 21.3141C50.1797 20.6065 49.6061 20.0329 48.8986 20.0329Z" fill="#FFF7FA"/>
</g>
</g>
<path d="M63.51 26.814C63.4033 26.814 63.3127 26.782 63.238 26.718C63.174 26.6433 63.142 26.5526 63.142 26.446V15.998C63.142 15.8806 63.174 15.79 63.238 15.726C63.3127 15.6513 63.4033 15.614 63.51 15.614H64.31C64.438 15.614 64.534 15.646 64.598 15.71C64.662 15.774 64.6993 15.8273 64.71 15.87L68.102 22.334L71.51 15.87C71.5313 15.8273 71.5687 15.774 71.622 15.71C71.686 15.646 71.782 15.614 71.91 15.614H72.694C72.8113 15.614 72.902 15.6513 72.966 15.726C73.0407 15.79 73.078 15.8806 73.078 15.998V26.446C73.078 26.5526 73.0407 26.6433 72.966 26.718C72.902 26.782 72.8113 26.814 72.694 26.814H71.91C71.8033 26.814 71.7127 26.782 71.638 26.718C71.574 26.6433 71.542 26.5526 71.542 26.446V18.574L68.87 23.79C68.8273 23.8966 68.7633 23.982 68.678 24.046C68.5927 24.0993 68.486 24.126 68.358 24.126H67.862C67.7233 24.126 67.6113 24.0993 67.526 24.046C67.4513 23.982 67.3873 23.8966 67.334 23.79L64.662 18.574V26.446C64.662 26.5526 64.6247 26.6433 64.55 26.718C64.486 26.782 64.4007 26.814 64.294 26.814H63.51ZM78.9491 26.974C77.8505 26.974 76.9758 26.638 76.3251 25.966C75.6745 25.2833 75.3171 24.3553 75.2531 23.182C75.2425 23.0433 75.2371 22.8673 75.2371 22.654C75.2371 22.43 75.2425 22.2486 75.2531 22.11C75.2958 21.3526 75.4718 20.6913 75.7811 20.126C76.0905 19.55 76.5118 19.1073 77.0451 18.798C77.5891 18.4886 78.2238 18.334 78.9491 18.334C79.7598 18.334 80.4371 18.5046 80.9811 18.846C81.5358 19.1873 81.9571 19.6726 82.2451 20.302C82.5331 20.9313 82.6771 21.6673 82.6771 22.51V22.782C82.6771 22.8993 82.6398 22.99 82.5651 23.054C82.5011 23.118 82.4158 23.15 82.3091 23.15H76.7731C76.7731 23.1606 76.7731 23.182 76.7731 23.214C76.7731 23.246 76.7731 23.2726 76.7731 23.294C76.7945 23.7313 76.8905 24.142 77.0611 24.526C77.2318 24.8993 77.4771 25.2033 77.7971 25.438C78.1171 25.6726 78.5011 25.79 78.9491 25.79C79.3331 25.79 79.6531 25.7313 79.9091 25.614C80.1651 25.4966 80.3731 25.3686 80.5331 25.23C80.6931 25.0806 80.7998 24.9686 80.8531 24.894C80.9491 24.7553 81.0238 24.6753 81.0771 24.654C81.1305 24.622 81.2158 24.606 81.3331 24.606H82.1011C82.2078 24.606 82.2931 24.638 82.3571 24.702C82.4318 24.7553 82.4638 24.8353 82.4531 24.942C82.4425 25.102 82.3571 25.2993 82.1971 25.534C82.0371 25.758 81.8078 25.982 81.5091 26.206C81.2105 26.43 80.8478 26.6166 80.4211 26.766C79.9945 26.9046 79.5038 26.974 78.9491 26.974ZM76.7731 22.046H81.1571V21.998C81.1571 21.518 81.0665 21.0913 80.8851 20.718C80.7145 20.3446 80.4638 20.0513 80.1331 19.838C79.8025 19.614 79.4078 19.502 78.9491 19.502C78.4905 19.502 78.0958 19.614 77.7651 19.838C77.4451 20.0513 77.1998 20.3446 77.0291 20.718C76.8585 21.0913 76.7731 21.518 76.7731 21.998V22.046ZM87.4703 26.974C86.8729 26.974 86.3609 26.8993 85.9343 26.75C85.5076 26.6006 85.1609 26.4193 84.8943 26.206C84.6276 25.9926 84.4249 25.7793 84.2863 25.566C84.1583 25.3526 84.0889 25.182 84.0783 25.054C84.0676 24.9366 84.1049 24.846 84.1903 24.782C84.2756 24.718 84.3609 24.686 84.4463 24.686H85.1503C85.2143 24.686 85.2623 24.6966 85.2943 24.718C85.3369 24.7286 85.3903 24.7713 85.4543 24.846C85.5929 24.9953 85.7476 25.1446 85.9183 25.294C86.0889 25.4433 86.2969 25.566 86.5423 25.662C86.7983 25.758 87.1129 25.806 87.4863 25.806C88.0303 25.806 88.4783 25.7046 88.8303 25.502C89.1823 25.2886 89.3583 24.9793 89.3583 24.574C89.3583 24.3073 89.2836 24.094 89.1343 23.934C88.9956 23.774 88.7396 23.63 88.3663 23.502C88.0036 23.374 87.5023 23.2406 86.8623 23.102C86.2223 22.9526 85.7156 22.7713 85.3423 22.558C84.9689 22.334 84.7023 22.0726 84.5423 21.774C84.3823 21.4646 84.3023 21.118 84.3023 20.734C84.3023 20.3393 84.4196 19.9606 84.6543 19.598C84.8889 19.2246 85.2303 18.9206 85.6783 18.686C86.1369 18.4513 86.7076 18.334 87.3903 18.334C87.9449 18.334 88.4196 18.4033 88.8143 18.542C89.2089 18.6806 89.5343 18.8566 89.7903 19.07C90.0463 19.2726 90.2383 19.4753 90.3663 19.678C90.4943 19.8806 90.5636 20.0513 90.5743 20.19C90.5849 20.2966 90.5529 20.3873 90.4783 20.462C90.4036 20.526 90.3183 20.558 90.2223 20.558H89.5503C89.4756 20.558 89.4116 20.542 89.3583 20.51C89.3156 20.478 89.2729 20.4406 89.2303 20.398C89.1236 20.2593 88.9956 20.1206 88.8463 19.982C88.7076 19.8433 88.5209 19.7313 88.2863 19.646C88.0623 19.55 87.7636 19.502 87.3903 19.502C86.8569 19.502 86.4569 19.614 86.1903 19.838C85.9236 20.062 85.7903 20.3446 85.7903 20.686C85.7903 20.8886 85.8489 21.07 85.9663 21.23C86.0836 21.39 86.3076 21.534 86.6383 21.662C86.9689 21.79 87.4596 21.9286 88.1102 22.078C88.8143 22.2166 89.3689 22.4033 89.7743 22.638C90.1796 22.8726 90.4676 23.1446 90.6383 23.454C90.8089 23.7633 90.8943 24.1206 90.8943 24.526C90.8943 24.974 90.7609 25.3846 90.4943 25.758C90.2383 26.1313 89.8543 26.43 89.3423 26.654C88.8409 26.8673 88.2169 26.974 87.4703 26.974ZM95.6265 26.974C95.0292 26.974 94.5172 26.8993 94.0905 26.75C93.6638 26.6006 93.3172 26.4193 93.0505 26.206C92.7838 25.9926 92.5812 25.7793 92.4425 25.566C92.3145 25.3526 92.2452 25.182 92.2345 25.054C92.2238 24.9366 92.2612 24.846 92.3465 24.782C92.4318 24.718 92.5172 24.686 92.6025 24.686H93.3065C93.3705 24.686 93.4185 24.6966 93.4505 24.718C93.4932 24.7286 93.5465 24.7713 93.6105 24.846C93.7492 24.9953 93.9038 25.1446 94.0745 25.294C94.2452 25.4433 94.4532 25.566 94.6985 25.662C94.9545 25.758 95.2692 25.806 95.6425 25.806C96.1865 25.806 96.6345 25.7046 96.9865 25.502C97.3385 25.2886 97.5145 24.9793 97.5145 24.574C97.5145 24.3073 97.4398 24.094 97.2905 23.934C97.1518 23.774 96.8958 23.63 96.5225 23.502C96.1598 23.374 95.6585 23.2406 95.0185 23.102C94.3785 22.9526 93.8718 22.7713 93.4985 22.558C93.1252 22.334 92.8585 22.0726 92.6985 21.774C92.5385 21.4646 92.4585 21.118 92.4585 20.734C92.4585 20.3393 92.5758 19.9606 92.8105 19.598C93.0452 19.2246 93.3865 18.9206 93.8345 18.686C94.2932 18.4513 94.8638 18.334 95.5465 18.334C96.1012 18.334 96.5758 18.4033 96.9705 18.542C97.3652 18.6806 97.6905 18.8566 97.9465 19.07C98.2025 19.2726 98.3945 19.4753 98.5225 19.678C98.6505 19.8806 98.7198 20.0513 98.7305 20.19C98.7412 20.2966 98.7092 20.3873 98.6345 20.462C98.5598 20.526 98.4745 20.558 98.3785 20.558H97.7065C97.6318 20.558 97.5678 20.542 97.5145 20.51C97.4718 20.478 97.4292 20.4406 97.3865 20.398C97.2798 20.2593 97.1518 20.1206 97.0025 19.982C96.8638 19.8433 96.6772 19.7313 96.4425 19.646C96.2185 19.55 95.9198 19.502 95.5465 19.502C95.0132 19.502 94.6132 19.614 94.3465 19.838C94.0798 20.062 93.9465 20.3446 93.9465 20.686C93.9465 20.8886 94.0052 21.07 94.1225 21.23C94.2398 21.39 94.4638 21.534 94.7945 21.662C95.1252 21.79 95.6158 21.9286 96.2665 22.078C96.9705 22.2166 97.5252 22.4033 97.9305 22.638C98.3358 22.8726 98.6238 23.1446 98.7945 23.454C98.9652 23.7633 99.0505 24.1206 99.0505 24.526C99.0505 24.974 98.9172 25.3846 98.6505 25.758C98.3945 26.1313 98.0105 26.43 97.4985 26.654C96.9972 26.8673 96.3732 26.974 95.6265 26.974ZM103.223 26.974C102.689 26.974 102.204 26.8673 101.767 26.654C101.329 26.4406 100.977 26.1526 100.711 25.79C100.444 25.4273 100.311 25.0166 100.311 24.558C100.311 23.822 100.609 23.2353 101.207 22.798C101.804 22.3606 102.583 22.0726 103.543 21.934L105.927 21.598V21.134C105.927 20.622 105.777 20.222 105.479 19.934C105.191 19.646 104.716 19.502 104.055 19.502C103.575 19.502 103.185 19.598 102.887 19.79C102.599 19.982 102.396 20.2273 102.279 20.526C102.215 20.686 102.103 20.766 101.943 20.766H101.223C101.105 20.766 101.015 20.734 100.951 20.67C100.897 20.5953 100.871 20.51 100.871 20.414C100.871 20.254 100.929 20.0566 101.047 19.822C101.175 19.5873 101.367 19.358 101.623 19.134C101.879 18.91 102.204 18.7233 102.599 18.574C103.004 18.414 103.495 18.334 104.071 18.334C104.711 18.334 105.249 18.4193 105.687 18.59C106.124 18.75 106.465 18.9686 106.711 19.246C106.967 19.5233 107.148 19.838 107.255 20.19C107.372 20.542 107.431 20.8993 107.431 21.262V26.446C107.431 26.5526 107.393 26.6433 107.319 26.718C107.255 26.782 107.169 26.814 107.063 26.814H106.327C106.209 26.814 106.119 26.782 106.055 26.718C105.991 26.6433 105.959 26.5526 105.959 26.446V25.758C105.82 25.95 105.633 26.142 105.399 26.334C105.164 26.5153 104.871 26.67 104.519 26.798C104.167 26.9153 103.735 26.974 103.223 26.974ZM103.559 25.774C103.996 25.774 104.396 25.6833 104.759 25.502C105.121 25.31 105.404 25.0166 105.607 24.622C105.82 24.2273 105.927 23.7313 105.927 23.134V22.686L104.071 22.958C103.313 23.0646 102.743 23.246 102.359 23.502C101.975 23.7473 101.783 24.062 101.783 24.446C101.783 24.7446 101.868 24.9953 102.039 25.198C102.22 25.39 102.444 25.534 102.711 25.63C102.988 25.726 103.271 25.774 103.559 25.774ZM113.139 30.334C112.414 30.334 111.816 30.238 111.347 30.046C110.888 29.854 110.526 29.6193 110.259 29.342C110.003 29.0753 109.816 28.8033 109.699 28.526C109.592 28.2593 109.534 28.046 109.523 27.886C109.512 27.7793 109.544 27.6886 109.619 27.614C109.704 27.5393 109.795 27.502 109.891 27.502H110.659C110.755 27.502 110.835 27.5233 110.899 27.566C110.963 27.6086 111.016 27.6993 111.059 27.838C111.123 27.998 111.219 28.174 111.347 28.366C111.475 28.5686 111.672 28.7393 111.939 28.878C112.206 29.0273 112.579 29.102 113.059 29.102C113.56 29.102 113.982 29.0326 114.323 28.894C114.664 28.766 114.92 28.5313 115.091 28.19C115.272 27.8593 115.363 27.4006 115.363 26.814V25.726C115.107 26.0566 114.771 26.334 114.355 26.558C113.939 26.7713 113.416 26.878 112.787 26.878C112.19 26.878 111.678 26.7766 111.251 26.574C110.824 26.3606 110.472 26.078 110.195 25.726C109.928 25.3633 109.726 24.9526 109.587 24.494C109.459 24.0353 109.384 23.5553 109.363 23.054C109.352 22.7553 109.352 22.462 109.363 22.174C109.384 21.6726 109.459 21.1926 109.587 20.734C109.726 20.2753 109.928 19.8646 110.195 19.502C110.472 19.1393 110.824 18.8566 111.251 18.654C111.678 18.4406 112.19 18.334 112.787 18.334C113.427 18.334 113.955 18.4566 114.371 18.702C114.798 18.9366 115.144 19.2246 115.411 19.566V18.878C115.411 18.7713 115.443 18.6806 115.507 18.606C115.582 18.5313 115.672 18.494 115.779 18.494H116.515C116.622 18.494 116.712 18.5313 116.787 18.606C116.862 18.6806 116.899 18.7713 116.899 18.878V26.638C116.899 27.3526 116.776 27.9873 116.531 28.542C116.296 29.0966 115.902 29.534 115.347 29.854C114.803 30.174 114.067 30.334 113.139 30.334ZM113.107 25.598C113.64 25.598 114.067 25.4753 114.387 25.23C114.718 24.9846 114.958 24.6753 115.107 24.302C115.267 23.9286 115.352 23.55 115.363 23.166C115.374 23.0166 115.379 22.8353 115.379 22.622C115.379 22.398 115.374 22.2113 115.363 22.062C115.352 21.678 115.267 21.2993 115.107 20.926C114.958 20.5526 114.718 20.2433 114.387 19.998C114.067 19.7526 113.64 19.63 113.107 19.63C112.574 19.63 112.147 19.7526 111.827 19.998C111.507 20.2326 111.278 20.5473 111.139 20.942C111 21.326 110.92 21.742 110.899 22.19C110.888 22.4673 110.888 22.75 110.899 23.038C110.92 23.486 111 23.9073 111.139 24.302C111.278 24.686 111.507 25.0006 111.827 25.246C112.147 25.4806 112.574 25.598 113.107 25.598ZM122.59 26.974C121.491 26.974 120.616 26.638 119.966 25.966C119.315 25.2833 118.958 24.3553 118.894 23.182C118.883 23.0433 118.878 22.8673 118.878 22.654C118.878 22.43 118.883 22.2486 118.894 22.11C118.936 21.3526 119.112 20.6913 119.422 20.126C119.731 19.55 120.152 19.1073 120.686 18.798C121.23 18.4886 121.864 18.334 122.59 18.334C123.4 18.334 124.078 18.5046 124.622 18.846C125.176 19.1873 125.598 19.6726 125.886 20.302C126.174 20.9313 126.318 21.6673 126.318 22.51V22.782C126.318 22.8993 126.28 22.99 126.206 23.054C126.142 23.118 126.056 23.15 125.95 23.15H120.414C120.414 23.1606 120.414 23.182 120.414 23.214C120.414 23.246 120.414 23.2726 120.414 23.294C120.435 23.7313 120.531 24.142 120.702 24.526C120.872 24.8993 121.118 25.2033 121.438 25.438C121.758 25.6726 122.142 25.79 122.59 25.79C122.974 25.79 123.294 25.7313 123.55 25.614C123.806 25.4966 124.014 25.3686 124.174 25.23C124.334 25.0806 124.44 24.9686 124.494 24.894C124.59 24.7553 124.664 24.6753 124.718 24.654C124.771 24.622 124.856 24.606 124.974 24.606H125.742C125.848 24.606 125.934 24.638 125.998 24.702C126.072 24.7553 126.104 24.8353 126.094 24.942C126.083 25.102 125.998 25.2993 125.838 25.534C125.678 25.758 125.448 25.982 125.15 26.206C124.851 26.43 124.488 26.6166 124.062 26.766C123.635 26.9046 123.144 26.974 122.59 26.974ZM120.414 22.046H124.798V21.998C124.798 21.518 124.707 21.0913 124.526 20.718C124.355 20.3446 124.104 20.0513 123.774 19.838C123.443 19.614 123.048 19.502 122.59 19.502C122.131 19.502 121.736 19.614 121.406 19.838C121.086 20.0513 120.84 20.3446 120.67 20.718C120.499 21.0913 120.414 21.518 120.414 21.998V22.046Z" fill="#FFF7FA"/>
<defs>
<clipPath id="clip0_2420_637">
<rect width="18" height="18" fill="white" transform="translate(35.75 12.314)"/>
</clipPath>
</defs>
</svg>
