<svg width="28" height="28" viewBox="0 0 28 28" fill="none" xmlns="http://www.w3.org/2000/svg">
<path d="M9.03571 7.55357C9.03571 6.65296 9.30278 5.77258 9.80313 5.02375C10.3035 4.27491 11.0147 3.69127 11.8467 3.34662C12.6788 3.00197 13.5943 2.9118 14.4776 3.0875C15.361 3.2632 16.1723 3.69688 16.8091 4.33371C17.446 4.97054 17.8797 5.78191 18.0554 6.66522C18.2311 7.54852 18.1409 8.46409 17.7962 9.29615C17.4516 10.1282 16.8679 10.8394 16.1191 11.3397C15.3703 11.8401 14.4899 12.1071 13.5893 12.1071C12.382 12.1058 11.2246 11.6257 10.3709 10.772C9.51721 9.9183 9.03703 8.76085 9.03571 7.55357ZM13.5893 12.8661C11.5772 12.8683 9.6481 13.6686 8.22532 15.0914C6.80254 16.5142 6.00224 18.4432 6 20.4554V21.9732C6.00066 22.5769 6.24075 23.1556 6.66758 23.5824C7.09442 24.0093 7.67315 24.2493 8.27679 24.25H18.9018C19.5054 24.2493 20.0842 24.0093 20.511 23.5824C20.9378 23.1556 21.1779 22.5769 21.1786 21.9732V20.4554C21.1763 18.4432 20.376 16.5142 18.9533 15.0914C17.5305 13.6686 15.6014 12.8683 13.5893 12.8661Z" fill="#E7F6FF"/>
</svg>
