<svg width="66" height="66" viewBox="0 0 66 66" fill="none" xmlns="http://www.w3.org/2000/svg">
<g filter="url(#filter0_di_238_1762)">
<rect x="11.8333" y="11.8334" width="42" height="42" rx="20.5417" fill="#2996D7" fill-opacity="0.2" shape-rendering="crispEdges"/>
<rect x="11.8333" y="11.8334" width="42" height="42" rx="20.5417" stroke="#2996D7" shape-rendering="crispEdges"/>
<path fill-rule="evenodd" clip-rule="evenodd" d="M31.5832 39.0833C31.5832 38.393 32.1429 37.8333 32.8332 37.8333H40.3332C41.0236 37.8333 41.5832 38.393 41.5832 39.0833C41.5832 39.7737 41.0236 40.3333 40.3332 40.3333H32.8332C32.1429 40.3333 31.5832 39.7737 31.5832 39.0833ZM24.0833 26.5834C24.0833 25.893 24.6429 25.3334 25.3332 25.3334H40.3332C41.0236 25.3334 41.5832 25.893 41.5832 26.5834C41.5832 27.2737 41.0236 27.8334 40.3332 27.8334H25.3332C24.6429 27.8334 24.0833 27.2737 24.0833 26.5834ZM24.0833 32.8334C24.0833 32.143 24.6429 31.5834 25.3332 31.5834H40.3332C41.0236 31.5834 41.5832 32.143 41.5832 32.8334C41.5832 33.5237 41.0236 34.0834 40.3332 34.0834H25.3332C24.6429 34.0834 24.0833 33.5237 24.0833 32.8334Z" fill="#E7F6FF"/>
</g>
<defs>
<filter id="filter0_di_238_1762" x="-8.2016e-05" y="4.00543e-05" width="65.6667" height="65.6667" filterUnits="userSpaceOnUse" color-interpolation-filters="sRGB">
<feFlood flood-opacity="0" result="BackgroundImageFix"/>
<feColorMatrix in="SourceAlpha" type="matrix" values="0 0 0 0 0 0 0 0 0 0 0 0 0 0 0 0 0 0 127 0" result="hardAlpha"/>
<feOffset/>
<feGaussianBlur stdDeviation="5.66667"/>
<feComposite in2="hardAlpha" operator="out"/>
<feColorMatrix type="matrix" values="0 0 0 0 0.188235 0 0 0 0 0.580392 0 0 0 0 0.835294 0 0 0 1 0"/>
<feBlend mode="normal" in2="BackgroundImageFix" result="effect1_dropShadow_238_1762"/>
<feBlend mode="normal" in="SourceGraphic" in2="effect1_dropShadow_238_1762" result="shape"/>
<feColorMatrix in="SourceAlpha" type="matrix" values="0 0 0 0 0 0 0 0 0 0 0 0 0 0 0 0 0 0 127 0" result="hardAlpha"/>
<feOffset/>
<feGaussianBlur stdDeviation="1.98333"/>
<feComposite in2="hardAlpha" operator="arithmetic" k2="-1" k3="1"/>
<feColorMatrix type="matrix" values="0 0 0 0 0.184314 0 0 0 0 0.576471 0 0 0 0 0.811765 0 0 0 1 0"/>
<feBlend mode="normal" in2="shape" result="effect2_innerShadow_238_1762"/>
</filter>
</defs>
</svg>
