<svg width="343" height="49" viewBox="0 0 343 49" fill="none" xmlns="http://www.w3.org/2000/svg">
<rect y="0.313965" width="343" height="48" rx="24" fill="#122C58"/>
<g clip-path="url(#clip0_214_7273)">
<path d="M33.4888 30.8874L29.6808 26.9269C30.6599 25.763 31.1964 24.2985 31.1964 22.774C31.1964 19.212 28.2983 16.314 24.7364 16.314C21.1744 16.314 18.2764 19.212 18.2764 22.774C18.2764 26.3359 21.1744 29.234 24.7364 29.234C26.0736 29.234 27.3479 28.8306 28.4374 28.065L32.2743 32.0556C32.4347 32.2221 32.6504 32.314 32.8816 32.314C33.1004 32.314 33.3079 32.2305 33.4655 32.0789C33.8003 31.7567 33.811 31.2225 33.4888 30.8874ZM24.7364 17.9992C27.3692 17.9992 29.5111 20.1411 29.5111 22.774C29.5111 25.4068 27.3692 27.5487 24.7364 27.5487C22.1035 27.5487 19.9616 25.4068 19.9616 22.774C19.9616 20.1411 22.1035 17.9992 24.7364 17.9992Z" fill="#2996D7"/>
</g>
<path d="M48.992 29.974C48.064 29.974 47.2853 29.8353 46.656 29.558C46.0267 29.27 45.5413 28.902 45.2 28.454C44.8693 27.9953 44.6933 27.51 44.672 26.998C44.672 26.9126 44.704 26.838 44.768 26.774C44.8427 26.6993 44.928 26.662 45.024 26.662H45.84C45.968 26.662 46.064 26.694 46.128 26.758C46.192 26.822 46.2347 26.8966 46.256 26.982C46.3093 27.238 46.4373 27.494 46.64 27.75C46.8533 27.9953 47.1467 28.2033 47.52 28.374C47.904 28.534 48.3947 28.614 48.992 28.614C49.9093 28.614 50.5813 28.454 51.008 28.134C51.4453 27.8033 51.664 27.366 51.664 26.822C51.664 26.4486 51.5467 26.15 51.312 25.926C51.088 25.6913 50.7413 25.4833 50.272 25.302C49.8027 25.1206 49.1947 24.9233 48.448 24.71C47.6693 24.486 47.024 24.2406 46.512 23.974C46 23.7073 45.616 23.3766 45.36 22.982C45.1147 22.5873 44.992 22.086 44.992 21.478C44.992 20.902 45.1467 20.39 45.456 19.942C45.7653 19.4833 46.208 19.1206 46.784 18.854C47.3707 18.5873 48.08 18.454 48.912 18.454C49.5733 18.454 50.1493 18.5446 50.64 18.726C51.1413 18.8966 51.5573 19.1313 51.888 19.43C52.2187 19.718 52.4693 20.0326 52.64 20.374C52.8107 20.7046 52.9013 21.03 52.912 21.35C52.912 21.4246 52.8853 21.4993 52.832 21.574C52.7787 21.638 52.6933 21.67 52.576 21.67H51.728C51.6533 21.67 51.5733 21.6486 51.488 21.606C51.4133 21.5633 51.3547 21.4833 51.312 21.366C51.248 20.9286 51.0027 20.5606 50.576 20.262C50.1493 19.9633 49.5947 19.814 48.912 19.814C48.2187 19.814 47.6533 19.9473 47.216 20.214C46.7893 20.4806 46.576 20.8966 46.576 21.462C46.576 21.8246 46.6773 22.1286 46.88 22.374C47.0827 22.6086 47.4027 22.8166 47.84 22.998C48.2773 23.1793 48.848 23.3713 49.552 23.574C50.4053 23.8086 51.104 24.0593 51.648 24.326C52.192 24.582 52.592 24.9073 52.848 25.302C53.1147 25.686 53.248 26.182 53.248 26.79C53.248 27.462 53.072 28.038 52.72 28.518C52.368 28.9873 51.872 29.35 51.232 29.606C50.6027 29.8513 49.856 29.974 48.992 29.974ZM58.4491 29.974C57.3505 29.974 56.4758 29.638 55.8251 28.966C55.1745 28.2833 54.8171 27.3553 54.7531 26.182C54.7425 26.0433 54.7371 25.8673 54.7371 25.654C54.7371 25.43 54.7425 25.2486 54.7531 25.11C54.7958 24.3526 54.9718 23.6913 55.2811 23.126C55.5905 22.55 56.0118 22.1073 56.5451 21.798C57.0891 21.4886 57.7238 21.334 58.4491 21.334C59.2598 21.334 59.9371 21.5046 60.4811 21.846C61.0358 22.1873 61.4571 22.6726 61.7451 23.302C62.0331 23.9313 62.1771 24.6673 62.1771 25.51V25.782C62.1771 25.8993 62.1398 25.99 62.0651 26.054C62.0011 26.118 61.9158 26.15 61.8091 26.15H56.2731C56.2731 26.1606 56.2731 26.182 56.2731 26.214C56.2731 26.246 56.2731 26.2726 56.2731 26.294C56.2945 26.7313 56.3905 27.142 56.5611 27.526C56.7318 27.8993 56.9771 28.2033 57.2971 28.438C57.6171 28.6726 58.0011 28.79 58.4491 28.79C58.8331 28.79 59.1531 28.7313 59.4091 28.614C59.6651 28.4966 59.8731 28.3686 60.0331 28.23C60.1931 28.0806 60.2998 27.9686 60.3531 27.894C60.4491 27.7553 60.5238 27.6753 60.5771 27.654C60.6305 27.622 60.7158 27.606 60.8331 27.606H61.6011C61.7078 27.606 61.7931 27.638 61.8571 27.702C61.9318 27.7553 61.9638 27.8353 61.9531 27.942C61.9425 28.102 61.8571 28.2993 61.6971 28.534C61.5371 28.758 61.3078 28.982 61.0091 29.206C60.7105 29.43 60.3478 29.6166 59.9211 29.766C59.4945 29.9046 59.0038 29.974 58.4491 29.974ZM56.2731 25.046H60.6571V24.998C60.6571 24.518 60.5665 24.0913 60.3851 23.718C60.2145 23.3446 59.9638 23.0513 59.6331 22.838C59.3025 22.614 58.9078 22.502 58.4491 22.502C57.9905 22.502 57.5958 22.614 57.2651 22.838C56.9451 23.0513 56.6998 23.3446 56.5291 23.718C56.3585 24.0913 56.2731 24.518 56.2731 24.998V25.046ZM66.4103 29.974C65.8769 29.974 65.3916 29.8673 64.9543 29.654C64.5169 29.4406 64.1649 29.1526 63.8983 28.79C63.6316 28.4273 63.4983 28.0166 63.4983 27.558C63.4983 26.822 63.7969 26.2353 64.3943 25.798C64.9916 25.3606 65.7703 25.0726 66.7303 24.934L69.1143 24.598V24.134C69.1143 23.622 68.9649 23.222 68.6663 22.934C68.3783 22.646 67.9036 22.502 67.2423 22.502C66.7623 22.502 66.3729 22.598 66.0743 22.79C65.7863 22.982 65.5836 23.2273 65.4663 23.526C65.4023 23.686 65.2903 23.766 65.1303 23.766H64.4103C64.2929 23.766 64.2023 23.734 64.1383 23.67C64.0849 23.5953 64.0583 23.51 64.0583 23.414C64.0583 23.254 64.1169 23.0566 64.2343 22.822C64.3623 22.5873 64.5543 22.358 64.8103 22.134C65.0663 21.91 65.3916 21.7233 65.7863 21.574C66.1916 21.414 66.6823 21.334 67.2583 21.334C67.8983 21.334 68.4369 21.4193 68.8743 21.59C69.3116 21.75 69.6529 21.9686 69.8983 22.246C70.1543 22.5233 70.3356 22.838 70.4423 23.19C70.5596 23.542 70.6183 23.8993 70.6183 24.262V29.446C70.6183 29.5526 70.5809 29.6433 70.5063 29.718C70.4423 29.782 70.3569 29.814 70.2503 29.814H69.5143C69.3969 29.814 69.3063 29.782 69.2423 29.718C69.1783 29.6433 69.1463 29.5526 69.1463 29.446V28.758C69.0076 28.95 68.8209 29.142 68.5863 29.334C68.3516 29.5153 68.0583 29.67 67.7063 29.798C67.3543 29.9153 66.9223 29.974 66.4103 29.974ZM66.7463 28.774C67.1836 28.774 67.5836 28.6833 67.9463 28.502C68.3089 28.31 68.5916 28.0166 68.7943 27.622C69.0076 27.2273 69.1143 26.7313 69.1143 26.134V25.686L67.2583 25.958C66.5009 26.0646 65.9303 26.246 65.5463 26.502C65.1623 26.7473 64.9703 27.062 64.9703 27.446C64.9703 27.7446 65.0556 27.9953 65.2263 28.198C65.4076 28.39 65.6316 28.534 65.8983 28.63C66.1756 28.726 66.4583 28.774 66.7463 28.774ZM73.2864 29.814C73.1797 29.814 73.089 29.782 73.0144 29.718C72.9504 29.6433 72.9184 29.5526 72.9184 29.446V21.878C72.9184 21.7713 72.9504 21.6806 73.0144 21.606C73.089 21.5313 73.1797 21.494 73.2864 21.494H74.0224C74.129 21.494 74.2197 21.5313 74.2944 21.606C74.369 21.6806 74.4064 21.7713 74.4064 21.878V22.582C74.6197 22.2193 74.913 21.9473 75.2864 21.766C75.6597 21.5846 76.1077 21.494 76.6304 21.494H77.2704C77.377 21.494 77.4624 21.5313 77.5264 21.606C77.5904 21.67 77.6224 21.7553 77.6224 21.862V22.518C77.6224 22.6246 77.5904 22.71 77.5264 22.774C77.4624 22.838 77.377 22.87 77.2704 22.87H76.3104C75.7344 22.87 75.281 23.0406 74.9504 23.382C74.6197 23.7126 74.4544 24.166 74.4544 24.742V29.446C74.4544 29.5526 74.417 29.6433 74.3424 29.718C74.2677 29.782 74.177 29.814 74.0704 29.814H73.2864ZM82.2003 29.974C81.4429 29.974 80.7869 29.83 80.2323 29.542C79.6883 29.2433 79.2669 28.822 78.9683 28.278C78.6696 27.7233 78.5096 27.062 78.4883 26.294C78.4776 26.134 78.4723 25.9206 78.4723 25.654C78.4723 25.3873 78.4776 25.174 78.4883 25.014C78.5096 24.246 78.6696 23.59 78.9683 23.046C79.2669 22.4913 79.6883 22.07 80.2323 21.782C80.7869 21.4833 81.4429 21.334 82.2003 21.334C82.8189 21.334 83.3469 21.4193 83.7843 21.59C84.2323 21.7606 84.6003 21.9793 84.8883 22.246C85.1763 22.5126 85.3896 22.8006 85.5283 23.11C85.6776 23.4193 85.7576 23.7126 85.7683 23.99C85.7789 24.0966 85.7469 24.182 85.6723 24.246C85.5976 24.31 85.5069 24.342 85.4003 24.342H84.6323C84.5256 24.342 84.4456 24.3206 84.3923 24.278C84.3389 24.2246 84.2856 24.1393 84.2323 24.022C84.0403 23.4993 83.7789 23.1313 83.4483 22.918C83.1176 22.7046 82.7069 22.598 82.2163 22.598C81.5763 22.598 81.0536 22.7953 80.6483 23.19C80.2536 23.5846 80.0403 24.2193 80.0082 25.094C79.9976 25.478 79.9976 25.8513 80.0082 26.214C80.0403 27.0993 80.2536 27.7393 80.6483 28.134C81.0536 28.518 81.5763 28.71 82.2163 28.71C82.7069 28.71 83.1176 28.6033 83.4483 28.39C83.7789 28.1766 84.0403 27.8086 84.2323 27.286C84.2856 27.1686 84.3389 27.0886 84.3923 27.046C84.4456 26.9926 84.5256 26.966 84.6323 26.966H85.4003C85.5069 26.966 85.5976 26.998 85.6723 27.062C85.7469 27.126 85.7789 27.2113 85.7683 27.318C85.7576 27.542 85.7096 27.7713 85.6243 28.006C85.5389 28.2406 85.4003 28.4806 85.2083 28.726C85.0269 28.9606 84.7976 29.174 84.5203 29.366C84.2429 29.5473 83.9069 29.6966 83.5123 29.814C83.1283 29.9206 82.6909 29.974 82.2003 29.974ZM88.0524 29.814C87.9457 29.814 87.855 29.782 87.7804 29.718C87.7164 29.6433 87.6844 29.5526 87.6844 29.446V18.822C87.6844 18.7153 87.7164 18.63 87.7804 18.566C87.855 18.4913 87.9457 18.454 88.0524 18.454H88.8524C88.9697 18.454 89.0604 18.4913 89.1244 18.566C89.1884 18.63 89.2204 18.7153 89.2204 18.822V22.55C89.5084 22.1873 89.8604 21.894 90.2764 21.67C90.6924 21.446 91.2204 21.334 91.8604 21.334C92.5537 21.334 93.1404 21.4886 93.6204 21.798C94.111 22.0966 94.479 22.518 94.7244 23.062C94.9804 23.5953 95.1084 24.2193 95.1084 24.934V29.446C95.1084 29.5526 95.0764 29.6433 95.0124 29.718C94.9484 29.782 94.8577 29.814 94.7404 29.814H93.9404C93.8337 29.814 93.743 29.782 93.6684 29.718C93.6044 29.6433 93.5724 29.5526 93.5724 29.446V25.014C93.5724 24.2673 93.391 23.686 93.0284 23.27C92.6657 22.8433 92.1324 22.63 91.4284 22.63C90.767 22.63 90.2337 22.8433 89.8284 23.27C89.423 23.686 89.2204 24.2673 89.2204 25.014V29.446C89.2204 29.5526 89.1884 29.6433 89.1244 29.718C89.0604 29.782 88.9697 29.814 88.8524 29.814H88.0524Z" fill="#E7F6FF"/>
<defs>
<clipPath id="clip0_214_7273">
<rect width="16" height="16" fill="white" transform="translate(18 16.314)"/>
</clipPath>
</defs>
</svg>
