<svg width="66" height="66" viewBox="0 0 66 66" fill="none" xmlns="http://www.w3.org/2000/svg">
<g filter="url(#filter0_di_238_1792)">
<rect x="11.8333" y="11.8334" width="42" height="42" rx="20.5417" fill="#2996D7" fill-opacity="0.2" shape-rendering="crispEdges"/>
<rect x="11.8333" y="11.8334" width="42" height="42" rx="20.5417" stroke="#2996D7" shape-rendering="crispEdges"/>
<g clip-path="url(#clip0_238_1792)">
<path d="M40.3221 39.4068L36.5141 35.4463C37.4932 34.2824 38.0297 32.8179 38.0297 31.2934C38.0297 27.7314 35.1317 24.8334 31.5697 24.8334C28.0077 24.8334 25.1097 27.7314 25.1097 31.2934C25.1097 34.8554 28.0077 37.7534 31.5697 37.7534C32.9069 37.7534 34.1812 37.35 35.2707 36.5844L39.1076 40.575C39.268 40.7415 39.4837 40.8334 39.7149 40.8334C39.9337 40.8334 40.1412 40.75 40.2988 40.5983C40.6336 40.2761 40.6443 39.7419 40.3221 39.4068ZM31.5697 26.5186C34.2025 26.5186 36.3445 28.6605 36.3445 31.2934C36.3445 33.9262 34.2025 36.0681 31.5697 36.0681C28.9368 36.0681 26.7949 33.9262 26.7949 31.2934C26.7949 28.6605 28.9368 26.5186 31.5697 26.5186Z" fill="#E7F6FF"/>
</g>
</g>
<defs>
<filter id="filter0_di_238_1792" x="-2.09808e-05" y="4.00543e-05" width="65.6667" height="65.6667" filterUnits="userSpaceOnUse" color-interpolation-filters="sRGB">
<feFlood flood-opacity="0" result="BackgroundImageFix"/>
<feColorMatrix in="SourceAlpha" type="matrix" values="0 0 0 0 0 0 0 0 0 0 0 0 0 0 0 0 0 0 127 0" result="hardAlpha"/>
<feOffset/>
<feGaussianBlur stdDeviation="5.66667"/>
<feComposite in2="hardAlpha" operator="out"/>
<feColorMatrix type="matrix" values="0 0 0 0 0.188235 0 0 0 0 0.580392 0 0 0 0 0.835294 0 0 0 1 0"/>
<feBlend mode="normal" in2="BackgroundImageFix" result="effect1_dropShadow_238_1792"/>
<feBlend mode="normal" in="SourceGraphic" in2="effect1_dropShadow_238_1792" result="shape"/>
<feColorMatrix in="SourceAlpha" type="matrix" values="0 0 0 0 0 0 0 0 0 0 0 0 0 0 0 0 0 0 127 0" result="hardAlpha"/>
<feOffset/>
<feGaussianBlur stdDeviation="1.98333"/>
<feComposite in2="hardAlpha" operator="arithmetic" k2="-1" k3="1"/>
<feColorMatrix type="matrix" values="0 0 0 0 0.184314 0 0 0 0 0.576471 0 0 0 0 0.811765 0 0 0 1 0"/>
<feBlend mode="normal" in2="shape" result="effect2_innerShadow_238_1792"/>
</filter>
<clipPath id="clip0_238_1792">
<rect width="16" height="16" fill="white" transform="translate(24.8333 24.8334)"/>
</clipPath>
</defs>
</svg>
