<svg width="20" height="19" viewBox="0 0 20 19" fill="none" xmlns="http://www.w3.org/2000/svg">
<path d="M18.7858 0.528415C18.314 0.0565401 17.6258 -0.119085 16.9865 0.0734152L1.9771 4.54966C1.26272 4.76216 0.77085 5.35529 0.692725 6.09716C0.6146 6.83841 0.972725 7.52091 1.6271 7.87779L7.7971 11.2434C7.91335 11.3072 8.00773 11.4015 8.07085 11.5172L11.4365 17.6865C11.7615 18.2822 12.3546 18.6322 13.0171 18.6322C13.0827 18.6322 13.1502 18.629 13.2171 18.6215C13.9583 18.5434 14.5515 18.0515 14.764 17.3365L19.2402 2.32779C19.4315 1.68966 19.2571 0.999665 18.7858 0.528415ZM18.1627 2.00654L13.6865 17.0159C13.5652 17.4228 13.2065 17.4922 13.0996 17.5028C12.9921 17.514 12.6277 17.5209 12.424 17.1484L9.0846 11.0272L14.1552 5.95591C14.3752 5.73654 14.3752 5.38029 14.1552 5.16091C13.9352 4.94091 13.5796 4.94091 13.3602 5.16091L8.2896 10.2309L2.16585 6.89029C1.7921 6.68654 1.80022 6.32154 1.81147 6.21466C1.82272 6.10779 1.89085 5.74904 2.29897 5.62779L17.3077 1.15154C17.3746 1.13154 17.4421 1.12216 17.5084 1.12216C17.6865 1.12216 17.8577 1.19217 17.9902 1.32467C18.1715 1.50529 18.2358 1.76092 18.1627 2.00654Z" fill="#FFF7FA"/>
</svg>
