<svg width="72" height="58" viewBox="0 0 72 58" fill="none" xmlns="http://www.w3.org/2000/svg">
<g filter="url(#filter0_d_186_5841)">
<path d="M18 28.9996C18 34.955 22.7115 39.7997 28.4999 39.7997H43.5001C49.2885 39.7997 54 34.955 54 28.9996C54 23.0444 49.2885 18.1997 43.5001 18.1997H28.4999C22.7115 18.1997 18 23.0444 18 28.9996Z" fill="#AC2459" fill-opacity="0.7" shape-rendering="crispEdges"/>
<path d="M28.5 19.0435H43.5C48.8002 19.0435 53.1562 23.4878 53.1562 28.9995C53.1562 34.5115 48.8002 38.9556 43.5 38.9556H28.5C23.1998 38.9556 18.8438 34.5115 18.8438 28.9995C18.8438 23.4878 23.1998 19.0435 28.5 19.0435Z" stroke="#FF3181" stroke-width="1.6875" shape-rendering="crispEdges"/>
</g>
<circle cx="43.2" cy="29.0003" r="7.2" fill="#FFF7FA"/>
<defs>
<filter id="filter0_d_186_5841" x="0" y="0.199707" width="72" height="57.6" filterUnits="userSpaceOnUse" color-interpolation-filters="sRGB">
<feFlood flood-opacity="0" result="BackgroundImageFix"/>
<feColorMatrix in="SourceAlpha" type="matrix" values="0 0 0 0 0 0 0 0 0 0 0 0 0 0 0 0 0 0 127 0" result="hardAlpha"/>
<feOffset/>
<feGaussianBlur stdDeviation="9"/>
<feComposite in2="hardAlpha" operator="out"/>
<feColorMatrix type="matrix" values="0 0 0 0 1 0 0 0 0 0.192157 0 0 0 0 0.505882 0 0 0 1 0"/>
<feBlend mode="normal" in2="BackgroundImageFix" result="effect1_dropShadow_186_5841"/>
<feBlend mode="normal" in="SourceGraphic" in2="effect1_dropShadow_186_5841" result="shape"/>
</filter>
</defs>
</svg>
